<?xml version="1.0" standalone="no"?><svg xmlns="http://www.w3.org/2000/svg" viewBox="0 0 1440 320"><path fill="#0099ff" fill-opacity="2" d="M0,256L34.3,229.3C68.6,203,137,149,206,149.3C274.3,149,343,203,411,229.3C480,256,549,256,617,250.7C685.7,245,754,235,823,197.3C891.4,160,960,96,1029,64C1097.1,32,1166,32,1234,42.7C1302.9,53,1371,75,1406,85.3L1440,96L1440,320L1405.7,320C1371.4,320,1303,320,1234,320C1165.7,320,1097,320,1029,320C960,320,891,320,823,320C754.3,320,686,320,617,320C548.6,320,480,320,411,320C342.9,320,274,320,206,320C137.1,320,69,320,34,320L0,320Z"></path></svg>